<svg width="75" height="75" viewBox="0 0 75 75" fill="none" xmlns="http://www.w3.org/2000/svg">
<g id="Group 66">
<g id="Ellipse 31" opacity="0.5" filter="url(#filter0_di_0_28)">
<circle cx="37.3479" cy="37.3965" r="28.6989" fill="#CFCFCF"/>
</g>
<g id="Ellipse 32" filter="url(#filter1_f_0_28)">
<mask id="path-2-inside-1_0_28" fill="white">
<path d="M72.1247 37.3966C72.1247 56.6032 56.5547 72.1732 37.348 72.1732C18.1414 72.1732 2.57135 56.6032 2.57135 37.3966C2.57135 18.1899 18.1414 2.61989 37.348 2.61989C56.5547 2.61989 72.1247 18.1899 72.1247 37.3966ZM9.56955 37.3966C9.56955 52.7382 22.0064 65.175 37.348 65.175C52.6897 65.175 65.1265 52.7382 65.1265 37.3966C65.1265 22.0549 52.6897 9.61809 37.348 9.61809C22.0064 9.61809 9.56955 22.0549 9.56955 37.3966Z"/>
</mask>
<path d="M72.1247 37.3966C72.1247 56.6032 56.5547 72.1732 37.348 72.1732C18.1414 72.1732 2.57135 56.6032 2.57135 37.3966C2.57135 18.1899 18.1414 2.61989 37.348 2.61989C56.5547 2.61989 72.1247 18.1899 72.1247 37.3966ZM9.56955 37.3966C9.56955 52.7382 22.0064 65.175 37.348 65.175C52.6897 65.175 65.1265 52.7382 65.1265 37.3966C65.1265 22.0549 52.6897 9.61809 37.348 9.61809C22.0064 9.61809 9.56955 22.0549 9.56955 37.3966Z" fill="#EEEEEE"/>
<path d="M72.1247 37.3966C72.1247 56.6032 56.5547 72.1732 37.348 72.1732C18.1414 72.1732 2.57135 56.6032 2.57135 37.3966C2.57135 18.1899 18.1414 2.61989 37.348 2.61989C56.5547 2.61989 72.1247 18.1899 72.1247 37.3966ZM9.56955 37.3966C9.56955 52.7382 22.0064 65.175 37.348 65.175C52.6897 65.175 65.1265 52.7382 65.1265 37.3966C65.1265 22.0549 52.6897 9.61809 37.348 9.61809C22.0064 9.61809 9.56955 22.0549 9.56955 37.3966Z" stroke="#CDCDCD" stroke-width="2" mask="url(#path-2-inside-1_0_28)"/>
</g>
<path id="Polygon 1" d="M50.9502 37.3966L30.547 49.1763L30.547 25.6168L50.9502 37.3966Z" fill="#1617DB"/>
</g>
<defs>
<filter id="filter0_di_0_28" x="4.64908" y="8.69767" width="65.3977" height="65.3977" filterUnits="userSpaceOnUse" color-interpolation-filters="sRGB">
<feFlood flood-opacity="0" result="BackgroundImageFix"/>
<feColorMatrix in="SourceAlpha" type="matrix" values="0 0 0 0 0 0 0 0 0 0 0 0 0 0 0 0 0 0 127 0" result="hardAlpha"/>
<feOffset dy="4"/>
<feGaussianBlur stdDeviation="2"/>
<feColorMatrix type="matrix" values="0 0 0 0 0 0 0 0 0 0 0 0 0 0 0 0 0 0 0.14 0"/>
<feBlend mode="normal" in2="BackgroundImageFix" result="effect1_dropShadow_0_28"/>
<feBlend mode="normal" in="SourceGraphic" in2="effect1_dropShadow_0_28" result="shape"/>
<feColorMatrix in="SourceAlpha" type="matrix" values="0 0 0 0 0 0 0 0 0 0 0 0 0 0 0 0 0 0 127 0" result="hardAlpha"/>
<feOffset dy="4"/>
<feGaussianBlur stdDeviation="2"/>
<feComposite in2="hardAlpha" operator="arithmetic" k2="-1" k3="1"/>
<feColorMatrix type="matrix" values="0 0 0 0 0 0 0 0 0 0 0 0 0 0 0 0 0 0 0.1 0"/>
<feBlend mode="normal" in2="shape" result="effect2_innerShadow_0_28"/>
</filter>
<filter id="filter1_f_0_28" x="0.57135" y="0.619888" width="73.5533" height="73.5534" filterUnits="userSpaceOnUse" color-interpolation-filters="sRGB">
<feFlood flood-opacity="0" result="BackgroundImageFix"/>
<feBlend mode="normal" in="SourceGraphic" in2="BackgroundImageFix" result="shape"/>
<feGaussianBlur stdDeviation="1" result="effect1_foregroundBlur_0_28"/>
</filter>
</defs>
</svg>
